ffmpeg started on 2025-05-26 at 18:35:47
Report written to "D:\Convert\FFMetrics\reports\ssim_report-6.txt"
Log level: 32
Command line:
ffmpeg -hide_banner -nostdin -i "G:\\\xc0\xed\xe8\xec\xe5\\\xce\xed\xe3\xee\xe8\xed\xe3\xe8\\!_34_\xc2\xe5\xf1\xed\xe0_2024\\DreamCast\\\xc7\xe0\xe1\xe2\xe5\xed\xe8\xe5 \xe1\xfd\xf2\xf2\xe5\xf0\xe8\\[DC] Boukyaku Battery - 03_Telegram_HEVC.mkv" -i "G:\\\xc0\xed\xe8\xec\xe5\\\xce\xed\xe3\xee\xe8\xed\xe3\xe8\\!_34_\xc2\xe5\xf1\xed\xe0_2024\\DreamCast\\\xc7\xe0\xe1\xe2\xe5\xed\xe8\xe5 \xe1\xfd\xf2\xf2\xe5\xf0\xe8\\[DC] Boukyaku Battery - 03_Telegram.mp4" -lavfi "[0:v]settb=AVTB,setpts=PTS-STARTPTS,format=pix_fmts=yuv420p10,fps=24000/1001,scale=1920:1080:flags=bicubic[main];[1:v]settb=AVTB,setpts=PTS-STARTPTS,format=pix_fmts=yuv420p,fps=24000/1001,scale=1920:1080:flags=bicubic[ref];[main][ref]ssim=eof_action=endall:stats_file='D\\:/Convert/FFMetrics/logs/ssim_logfile-6.txt'" -f null -
Input #0, matroska,webm, from 'G:\Аниме\Онгоинги\!_34_Весна_2024\DreamCast\Забвение бэттери\[DC] Boukyaku Battery - 03_Telegram_HEVC.mkv':
  Metadata:
    COMPATIBLE_BRANDS: isomiso2avc1mp41
    MAJOR_BRAND     : isom
    MINOR_VERSION   : 512
    ENCODER         : Lavf61.7.100
  Duration: 00:24:01.67, start: -0.021000, bitrate: 1524 kb/s
  Stream #0:0: Video: hevc (Main 10), yuv420p10le(tv, bt709, progressive), 1920x1080 [SAR 1:1 DAR 16:9], 23.98 fps, 23.98 tbr, 1k tbn (default)
      Metadata:
        HANDLER_NAME    : VideoHandler
        VENDOR_ID       : [0][0][0][0]
        ENCODER         : Lavc61.19.100 libx265
        BPS             : 1326964
        DURATION        : 00:24:01.481708333
        NUMBER_OF_FRAMES: 34561
        NUMBER_OF_BYTES : 239099347
        _STATISTICS_WRITING_APP: mkvpropedit v66.0.0 ('Josie') 64-bit
        _STATISTICS_WRITING_DATE_UTC: 2025-05-26 10:27:50
        _STATISTICS_TAGS: BPS DURATION NUMBER_OF_FRAMES NUMBER_OF_BYTES
  Stream #0:1: Audio: aac (LC), 48000 Hz, stereo, fltp (default)
      Metadata:
        HANDLER_NAME    : SoundHandler
        VENDOR_ID       : [0][0][0][0]
        ENCODER         : Lavc61.19.100 aac
        BPS             : 193272
        DURATION        : 00:24:01.664000000
        NUMBER_OF_FRAMES: 67579
        NUMBER_OF_BYTES : 34829174
        _STATISTICS_WRITING_APP: mkvpropedit v66.0.0 ('Josie') 64-bit
        _STATISTICS_WRITING_DATE_UTC: 2025-05-26 10:27:50
        _STATISTICS_TAGS: BPS DURATION NUMBER_OF_FRAMES NUMBER_OF_BYTES
Input #1, mov,mp4,m4a,3gp,3g2,mj2, from 'G:\Аниме\Онгоинги\!_34_Весна_2024\DreamCast\Забвение бэттери\[DC] Boukyaku Battery - 03_Telegram.mp4':
  Metadata:
    major_brand     : isom
    minor_version   : 512
    compatible_brands: isomiso2avc1mp41
    encoder         : Lavf60.16.100
  Duration: 00:24:01.61, start: 0.000000, bitrate: 3958 kb/s
  Stream #1:0[0x1](und): Video: h264 (High) (avc1 / 0x31637661), yuv420p(tv, bt709, progressive), 1920x1080 [SAR 1:1 DAR 16:9], 3810 kb/s, 23.98 fps, 23.98 tbr, 24k tbn (default)
      Metadata:
        handler_name    : VideoHandler
        vendor_id       : [0][0][0][0]
        encoder         : Lavc60.31.102 h264_qsv
  Stream #1:1[0x2](und): Audio: aac (HE-AACv2) (mp4a / 0x6134706D), 48000 Hz, stereo, fltp, 144 kb/s (default)
      Metadata:
        handler_name    : SoundHandler
        vendor_id       : [0][0][0][0]
Stream mapping:
  Stream #0:0 (hevc) -> settb:default
  Stream #1:0 (h264) -> settb:default
  ssim:default -> Stream #0:0 (wrapped_avframe)
  Stream #0:1 -> #0:1 (aac (native) -> pcm_s16le (native))
Output #0, null, to 'pipe:':
  Metadata:
    COMPATIBLE_BRANDS: isomiso2avc1mp41
    MAJOR_BRAND     : isom
    MINOR_VERSION   : 512
    encoder         : Lavf61.7.100
  Stream #0:0: Video: wrapped_avframe, yuv420p10le(tv, bt709, progressive), 1920x1080 [SAR 1:1 DAR 16:9], q=2-31, 200 kb/s, 23.98 fps, 23.98 tbn
      Metadata:
        encoder         : Lavc61.19.100 wrapped_avframe
  Stream #0:1: Audio: pcm_s16le, 48000 Hz, stereo, s16, 1536 kb/s (default)
      Metadata:
        HANDLER_NAME    : SoundHandler
        VENDOR_ID       : [0][0][0][0]
        _STATISTICS_TAGS: BPS DURATION NUMBER_OF_FRAMES NUMBER_OF_BYTES
        BPS             : 193272
        DURATION        : 00:24:01.664000000
        NUMBER_OF_FRAMES: 67579
        NUMBER_OF_BYTES : 34829174
        _STATISTICS_WRITING_APP: mkvpropedit v66.0.0 ('Josie') 64-bit
        _STATISTICS_WRITING_DATE_UTC: 2025-05-26 10:27:50
        encoder         : Lavc61.19.100 pcm_s16le
frame=  169 fps=0.0 q=-0.0 size=N/A time=00:00:07.04 bitrate=N/A speed=13.9x    frame=  397 fps=384 q=-0.0 size=N/A time=00:00:16.55 bitrate=N/A speed=  16x    frame=  649 fps=416 q=-0.0 size=N/A time=00:00:27.06 bitrate=N/A speed=17.4x    frame=  894 fps=433 q=-0.0 size=N/A time=00:00:37.28 bitrate=N/A speed=  18x    frame= 1116 fps=431 q=-0.0 size=N/A time=00:00:46.54 bitrate=N/A speed=  18x    frame= 1317 fps=425 q=-0.0 size=N/A time=00:00:54.92 bitrate=N/A speed=17.7x    frame= 1526 fps=421 q=-0.0 size=N/A time=00:01:03.64 bitrate=N/A speed=17.6x    frame= 1738 fps=421 q=-0.0 size=N/A time=00:01:12.48 bitrate=N/A speed=17.6x    frame= 1932 fps=415 q=-0.0 size=N/A time=00:01:20.58 bitrate=N/A speed=17.3x    frame= 2120 fps=411 q=-0.0 size=N/A time=00:01:28.42 bitrate=N/A speed=17.1x    frame= 2342 fps=412 q=-0.0 size=N/A time=00:01:37.68 bitrate=N/A speed=17.2x    frame= 2523 fps=407 q=-0.0 size=N/A time=00:01:45.23 bitrate=N/A speed=  17x    frame= 2745 fps=409 q=-0.0 size=N/A time=00:01:54.48 bitrate=N/A speed=17.1x    frame= 2984 fps=412 q=-0.0 size=N/A time=00:02:04.45 bitrate=N/A speed=17.2x    frame= 3195 fps=413 q=-0.0 size=N/A time=00:02:13.25 bitrate=N/A speed=17.2x    frame= 3453 fps=418 q=-0.0 size=N/A time=00:02:24.01 bitrate=N/A speed=17.4x    frame= 3699 fps=422 q=-0.0 size=N/A time=00:02:34.27 bitrate=N/A speed=17.6x    frame= 3969 fps=427 q=-0.0 size=N/A time=00:02:45.54 bitrate=N/A speed=17.8x    frame= 4211 fps=430 q=-0.0 size=N/A time=00:02:55.63 bitrate=N/A speed=17.9x    frame= 4478 fps=434 q=-0.0 size=N/A time=00:03:06.76 bitrate=N/A speed=18.1x    frame= 4706 fps=434 q=-0.0 size=N/A time=00:03:16.27 bitrate=N/A speed=18.1x    frame= 4879 fps=430 q=-0.0 size=N/A time=00:03:23.49 bitrate=N/A speed=17.9x    frame= 5145 fps=434 q=-0.0 size=N/A time=00:03:34.58 bitrate=N/A speed=18.1x    frame= 5407 fps=437 q=-0.0 size=N/A time=00:03:45.51 bitrate=N/A speed=18.2x    frame= 5682 fps=440 q=-0.0 size=N/A time=00:03:56.98 bitrate=N/A speed=18.4x    frame= 5925 fps=441 q=-0.0 size=N/A time=00:04:07.12 bitrate=N/A speed=18.4x    frame= 6156 fps=441 q=-0.0 size=N/A time=00:04:16.75 bitrate=N/A speed=18.4x    frame= 6393 fps=442 q=-0.0 size=N/A time=00:04:26.64 bitrate=N/A speed=18.4x    frame= 6648 fps=444 q=-0.0 size=N/A time=00:04:37.27 bitrate=N/A speed=18.5x    frame= 6896 fps=445 q=-0.0 size=N/A time=00:04:47.62 bitrate=N/A speed=18.6x    frame= 7115 fps=444 q=-0.0 size=N/A time=00:04:56.75 bitrate=N/A speed=18.5x    frame= 7360 fps=445 q=-0.0 size=N/A time=00:05:06.97 bitrate=N/A speed=18.6x    frame= 7612 fps=447 q=-0.0 size=N/A time=00:05:17.48 bitrate=N/A speed=18.6x    frame= 7878 fps=449 q=-0.0 size=N/A time=00:05:28.57 bitrate=N/A speed=18.7x    frame= 8134 fps=450 q=-0.0 size=N/A time=00:05:39.25 bitrate=N/A speed=18.8x    frame= 8383 fps=451 q=-0.0 size=N/A time=00:05:49.64 bitrate=N/A speed=18.8x    frame= 8591 fps=450 q=-0.0 size=N/A time=00:05:58.31 bitrate=N/A speed=18.8x    frame= 8823 fps=450 q=-0.0 size=N/A time=00:06:07.99 bitrate=N/A speed=18.8x    frame= 9096 fps=452 q=-0.0 size=N/A time=00:06:19.37 bitrate=N/A speed=18.8x    frame= 9359 fps=453 q=-0.0 size=N/A time=00:06:30.34 bitrate=N/A speed=18.9x    frame= 9628 fps=455 q=-0.0 size=N/A time=00:06:41.60 bitrate=N/A speed=  19x    frame= 9898 fps=457 q=-0.0 size=N/A time=00:06:52.82 bitrate=N/A speed=  19x    frame=10157 fps=458 q=-0.0 size=N/A time=00:07:03.63 bitrate=N/A speed=19.1x    frame=10398 fps=458 q=-0.0 size=N/A time=00:07:13.68 bitrate=N/A speed=19.1x    frame=10638 fps=458 q=-0.0 size=N/A time=00:07:23.69 bitrate=N/A speed=19.1x    frame=10848 fps=457 q=-0.0 size=N/A time=00:07:32.45 bitrate=N/A speed=19.1x    frame=11096 fps=457 q=-0.0 size=N/A time=00:07:42.79 bitrate=N/A speed=19.1x    frame=11341 fps=458 q=-0.0 size=N/A time=00:07:53.01 bitrate=N/A speed=19.1x    frame=11587 fps=458 q=-0.0 size=N/A time=00:08:03.27 bitrate=N/A speed=19.1x    frame=11814 fps=458 q=-0.0 size=N/A time=00:08:12.74 bitrate=N/A speed=19.1x    frame=12015 fps=456 q=-0.0 size=N/A time=00:08:21.12 bitrate=N/A speed=  19x    frame=12256 fps=457 q=-0.0 size=N/A time=00:08:31.17 bitrate=N/A speed=19.1x    frame=12492 fps=457 q=-0.0 size=N/A time=00:08:41.02 bitrate=N/A speed=  19x    frame=12743 fps=457 q=-0.0 size=N/A time=00:08:51.48 bitrate=N/A speed=19.1x    frame=12988 fps=458 q=-0.0 size=N/A time=00:09:01.70 bitrate=N/A speed=19.1x    frame=13245 fps=458 q=-0.0 size=N/A time=00:09:12.42 bitrate=N/A speed=19.1x    frame=13509 fps=459 q=-0.0 size=N/A time=00:09:23.43 bitrate=N/A speed=19.1x    frame=13763 fps=459 q=-0.0 size=N/A time=00:09:34.03 bitrate=N/A speed=19.2x    frame=14008 fps=460 q=-0.0 size=N/A time=00:09:44.25 bitrate=N/A speed=19.2x    frame=14253 fps=460 q=-0.0 size=N/A time=00:09:54.46 bitrate=N/A speed=19.2x    frame=14478 fps=460 q=-0.0 size=N/A time=00:10:03.85 bitrate=N/A speed=19.2x    frame=14703 fps=459 q=-0.0 size=N/A time=00:10:13.23 bitrate=N/A speed=19.2x    frame=14964 fps=460 q=-0.0 size=N/A time=00:10:24.12 bitrate=N/A speed=19.2x    frame=15242 fps=461 q=-0.0 size=N/A time=00:10:35.71 bitrate=N/A speed=19.2x    frame=15448 fps=460 q=-0.0 size=N/A time=00:10:44.31 bitrate=N/A speed=19.2x    frame=15711 fps=461 q=-0.0 size=N/A time=00:10:55.27 bitrate=N/A speed=19.2x    frame=15971 fps=462 q=-0.0 size=N/A time=00:11:06.12 bitrate=N/A speed=19.3x    frame=16209 fps=462 q=-0.0 size=N/A time=00:11:16.09 bitrate=N/A speed=19.3x    frame=16469 fps=462 q=-0.0 size=N/A time=00:11:26.89 bitrate=N/A speed=19.3x    frame=16709 fps=462 q=-0.0 size=N/A time=00:11:36.90 bitrate=N/A speed=19.3x    frame=16926 fps=462 q=-0.0 size=N/A time=00:11:45.95 bitrate=N/A speed=19.3x    frame=17144 fps=461 q=-0.0 size=N/A time=00:11:55.04 bitrate=N/A speed=19.2x    frame=17383 fps=461 q=-0.0 size=N/A time=00:12:05.01 bitrate=N/A speed=19.2x    frame=17620 fps=461 q=-0.0 size=N/A time=00:12:14.90 bitrate=N/A speed=19.2x    frame=17843 fps=461 q=-0.0 size=N/A time=00:12:24.20 bitrate=N/A speed=19.2x    frame=18047 fps=460 q=-0.0 size=N/A time=00:12:32.71 bitrate=N/A speed=19.2x    frame=18259 fps=459 q=-0.0 size=N/A time=00:12:41.55 bitrate=N/A speed=19.2x    frame=18485 fps=459 q=-0.0 size=N/A time=00:12:50.97 bitrate=N/A speed=19.2x    frame=18754 fps=460 q=-0.0 size=N/A time=00:13:02.19 bitrate=N/A speed=19.2x    frame=19024 fps=461 q=-0.0 size=N/A time=00:13:13.45 bitrate=N/A speed=19.2x    frame=19249 fps=460 q=-0.0 size=N/A time=00:13:22.84 bitrate=N/A speed=19.2x    frame=19464 fps=460 q=-0.0 size=N/A time=00:13:31.81 bitrate=N/A speed=19.2x    frame=19720 fps=460 q=-0.0 size=N/A time=00:13:42.48 bitrate=N/A speed=19.2x    frame=19915 fps=459 q=-0.0 size=N/A time=00:13:50.62 bitrate=N/A speed=19.2x    frame=20116 fps=459 q=-0.0 size=N/A time=00:13:59.00 bitrate=N/A speed=19.1x    frame=20334 fps=458 q=-0.0 size=N/A time=00:14:08.09 bitrate=N/A speed=19.1x    frame=20588 fps=458 q=-0.0 size=N/A time=00:14:18.69 bitrate=N/A speed=19.1x    frame=20859 fps=459 q=-0.0 size=N/A time=00:14:29.99 bitrate=N/A speed=19.1x    frame=21088 fps=459 q=-0.0 size=N/A time=00:14:39.54 bitrate=N/A speed=19.1x    frame=21339 fps=459 q=-0.0 size=N/A time=00:14:50.01 bitrate=N/A speed=19.2x    frame=21540 fps=458 q=-0.0 size=N/A time=00:14:58.39 bitrate=N/A speed=19.1x    frame=21803 fps=459 q=-0.0 size=N/A time=00:15:09.36 bitrate=N/A speed=19.1x    frame=22002 fps=458 q=-0.0 size=N/A time=00:15:17.66 bitrate=N/A speed=19.1x    frame=22224 fps=458 q=-0.0 size=N/A time=00:15:26.92 bitrate=N/A speed=19.1x    frame=22402 fps=456 q=-0.0 size=N/A time=00:15:34.35 bitrate=N/A speed=  19x    frame=22622 fps=456 q=-0.0 size=N/A time=00:15:43.52 bitrate=N/A speed=  19x    frame=22812 fps=455 q=-0.0 size=N/A time=00:15:51.45 bitrate=N/A speed=  19x    frame=23057 fps=456 q=-0.0 size=N/A time=00:16:01.66 bitrate=N/A speed=  19x    frame=23286 fps=455 q=-0.0 size=N/A time=00:16:11.22 bitrate=N/A speed=  19x    frame=23524 fps=455 q=-0.0 size=N/A time=00:16:21.14 bitrate=N/A speed=  19x    frame=23782 fps=456 q=-0.0 size=N/A time=00:16:31.90 bitrate=N/A speed=  19x    frame=23987 fps=455 q=-0.0 size=N/A time=00:16:40.45 bitrate=N/A speed=  19x    frame=24174 fps=454 q=-0.0 size=N/A time=00:16:48.25 bitrate=N/A speed=  19x    frame=24408 fps=454 q=-0.0 size=N/A time=00:16:58.01 bitrate=N/A speed=  19x    frame=24639 fps=454 q=-0.0 size=N/A time=00:17:07.65 bitrate=N/A speed=  19x    frame=24865 fps=454 q=-0.0 size=N/A time=00:17:17.07 bitrate=N/A speed=18.9x    frame=25111 fps=454 q=-0.0 size=N/A time=00:17:27.33 bitrate=N/A speed=  19x    frame=25364 fps=455 q=-0.0 size=N/A time=00:17:37.89 bitrate=N/A speed=  19x    frame=25593 fps=455 q=-0.0 size=N/A time=00:17:47.44 bitrate=N/A speed=  19x    frame=25873 fps=455 q=-0.0 size=N/A time=00:17:59.11 bitrate=N/A speed=  19x    frame=26131 fps=456 q=-0.0 size=N/A time=00:18:09.88 bitrate=N/A speed=  19x    frame=26369 fps=456 q=-0.0 size=N/A time=00:18:19.80 bitrate=N/A speed=  19x    frame=26587 fps=456 q=-0.0 size=N/A time=00:18:28.89 bitrate=N/A speed=  19x    frame=26771 fps=455 q=-0.0 size=N/A time=00:18:36.57 bitrate=N/A speed=  19x    frame=26978 fps=454 q=-0.0 size=N/A time=00:18:45.20 bitrate=N/A speed=18.9x    frame=27144 fps=453 q=-0.0 size=N/A time=00:18:52.13 bitrate=N/A speed=18.9x    frame=27340 fps=452 q=-0.0 size=N/A time=00:19:00.30 bitrate=N/A speed=18.9x    frame=27516 fps=452 q=-0.0 size=N/A time=00:19:07.64 bitrate=N/A speed=18.8x    frame=27751 fps=452 q=-0.0 size=N/A time=00:19:17.44 bitrate=N/A speed=18.8x    frame=27993 fps=452 q=-0.0 size=N/A time=00:19:27.54 bitrate=N/A speed=18.8x    frame=28168 fps=451 q=-0.0 size=N/A time=00:19:34.84 bitrate=N/A speed=18.8x    frame=28393 fps=451 q=-0.0 size=N/A time=00:19:44.22 bitrate=N/A speed=18.8x    frame=28593 fps=450 q=-0.0 size=N/A time=00:19:52.56 bitrate=N/A speed=18.8x    frame=28842 fps=450 q=-0.0 size=N/A time=00:20:02.95 bitrate=N/A speed=18.8x    frame=29094 fps=451 q=-0.0 size=N/A time=00:20:13.46 bitrate=N/A speed=18.8x    frame=29303 fps=450 q=-0.0 size=N/A time=00:20:22.17 bitrate=N/A speed=18.8x    frame=29509 fps=450 q=-0.0 size=N/A time=00:20:30.77 bitrate=N/A speed=18.8x    frame=29773 fps=450 q=-0.0 size=N/A time=00:20:41.78 bitrate=N/A speed=18.8x    frame=30035 fps=451 q=-0.0 size=N/A time=00:20:52.70 bitrate=N/A speed=18.8x    frame=30292 fps=451 q=-0.0 size=N/A time=00:21:03.42 bitrate=N/A speed=18.8x    frame=30545 fps=452 q=-0.0 size=N/A time=00:21:13.98 bitrate=N/A speed=18.8x    frame=30787 fps=452 q=-0.0 size=N/A time=00:21:24.07 bitrate=N/A speed=18.8x    frame=31031 fps=452 q=-0.0 size=N/A time=00:21:34.25 bitrate=N/A speed=18.8x    frame=31234 fps=451 q=-0.0 size=N/A time=00:21:42.71 bitrate=N/A speed=18.8x    frame=31449 fps=451 q=-0.0 size=N/A time=00:21:51.68 bitrate=N/A speed=18.8x    frame=31687 fps=451 q=-0.0 size=N/A time=00:22:01.61 bitrate=N/A speed=18.8x    frame=31911 fps=451 q=-0.0 size=N/A time=00:22:10.95 bitrate=N/A speed=18.8x    frame=32138 fps=451 q=-0.0 size=N/A time=00:22:20.42 bitrate=N/A speed=18.8x    frame=32333 fps=451 q=-0.0 size=N/A time=00:22:28.55 bitrate=N/A speed=18.8x    frame=32495 fps=450 q=-0.0 size=N/A time=00:22:35.31 bitrate=N/A speed=18.7x    frame=32706 fps=449 q=-0.0 size=N/A time=00:22:44.11 bitrate=N/A speed=18.7x    frame=32882 fps=448 q=-0.0 size=N/A time=00:22:51.45 bitrate=N/A speed=18.7x    frame=33084 fps=448 q=-0.0 size=N/A time=00:22:59.87 bitrate=N/A speed=18.7x    frame=33238 fps=447 q=-0.0 size=N/A time=00:23:06.30 bitrate=N/A speed=18.6x    frame=33410 fps=446 q=-0.0 size=N/A time=00:23:13.47 bitrate=N/A speed=18.6x    frame=33603 fps=446 q=-0.0 size=N/A time=00:23:21.52 bitrate=N/A speed=18.6x    frame=33811 fps=445 q=-0.0 size=N/A time=00:23:30.20 bitrate=N/A speed=18.6x    frame=34058 fps=446 q=-0.0 size=N/A time=00:23:40.50 bitrate=N/A speed=18.6x    frame=34311 fps=446 q=-0.0 size=N/A time=00:23:51.05 bitrate=N/A speed=18.6x    frame=34529 fps=446 q=-0.0 size=N/A time=00:24:00.14 bitrate=N/A speed=18.6x    [Parsed_ssim_10 @ 0000024bb1df8400] SSIM Y:0.993765 (22.051926) U:0.992639 (21.330705) V:0.992307 (21.139116) All:0.993335 (21.761773)
[out#0/null @ 0000024baa2c4e80] video:14850KiB audio:270316KiB subtitle:0KiB other streams:0KiB global headers:0KiB muxing overhead: unknown
frame=34561 fps=446 q=-0.0 Lsize=N/A time=00:24:01.48 bitrate=N/A speed=18.6x    
